<svg width="1159" height="326" viewBox="0 0 1159 326" fill="none" xmlns="http://www.w3.org/2000/svg">
<path d="M221.873 229.489C221.873 290.076 189.379 320.37 124.391 320.37H0V5.07717H121.852C154.008 5.07717 177.871 11.6775 193.441 24.8782C209.011 37.7404 216.796 58.3876 216.796 86.8198C216.796 115.252 205.118 136.915 181.763 151.808V154.854C208.503 165.347 221.873 190.225 221.873 229.489ZM104.082 264.013C114.237 264.013 121.006 261.813 124.391 257.413C128.114 252.674 129.976 243.197 129.976 228.981C129.976 214.426 128.114 204.272 124.391 198.518C120.668 192.425 113.898 189.379 104.082 189.379H87.8352V264.013H104.082ZM104.59 140.13C112.375 140.13 117.791 137.761 120.837 133.022C123.883 128.283 125.406 119.991 125.406 108.144C125.406 95.9587 123.714 87.4967 120.329 82.758C117.283 77.6809 111.867 75.1423 104.082 75.1423H87.8352V140.13H104.59Z" fill="white"/>
<path d="M411.819 320.37H251.38V5.07717H338.2V249.797H416.896L411.819 320.37Z" fill="white"/>
<path d="M454.114 38.0788C473.746 12.6929 505.732 0 550.073 0C594.413 0 626.061 12.5237 645.016 37.5711C664.309 62.6186 673.956 103.405 673.956 159.931C673.956 216.119 664.14 257.751 644.508 284.83C624.876 311.908 593.059 325.447 549.057 325.447C505.055 325.447 473.407 312.077 454.114 285.337C434.821 258.598 425.174 217.134 425.174 160.947C425.174 104.421 434.821 63.4647 454.114 38.0788ZM586.628 159.931C586.628 128.791 584.09 107.805 579.013 96.9741C574.274 85.8043 564.289 80.2194 549.057 80.2194C534.164 80.2194 524.518 85.8043 520.117 96.9741C515.717 107.805 513.517 128.622 513.517 159.423V171.609C513.517 204.441 515.886 226.104 520.625 236.597C525.702 246.751 535.687 251.828 550.58 251.828C565.812 251.828 575.628 246.92 580.028 237.104C584.428 227.288 586.628 206.98 586.628 176.178V159.931Z" fill="white"/>
<path d="M898.411 99.005C865.917 89.1891 842.054 84.2812 826.823 84.2812C811.93 84.2812 801.606 90.8815 795.852 104.082C790.436 117.283 787.728 138.269 787.728 167.039C787.728 195.471 790.267 216.288 795.344 229.489C800.76 242.351 811.591 248.782 827.838 248.782C832.577 248.782 841.716 247.428 855.255 244.72V206.133H832.407V146.223H929.382V320.37H869.471L861.347 304.123H859.317C853.562 308.862 848.993 312.416 845.608 314.785C836.131 321.893 822.761 325.447 805.498 325.447C734.756 325.447 699.385 271.968 699.385 165.008C699.385 111.529 708.694 70.742 727.31 42.6483C745.926 14.2161 777.235 0 821.238 0C856.439 0 886.733 5.41566 912.119 16.247L898.411 99.005Z" fill="white"/>
<path d="M957.588 100.02C957.588 69.8958 966.388 45.6946 983.989 27.4168C1001.59 9.13893 1025.62 0 1056.08 0C1086.89 0 1118.37 3.04631 1150.52 9.13893L1140.37 90.3738C1106.86 82.5888 1083.84 78.6963 1071.32 78.6963C1055.41 78.6963 1047.45 85.1274 1047.45 97.9896C1047.45 103.067 1051.18 107.975 1058.62 112.713C1066.41 117.452 1075.72 122.529 1086.55 127.945C1097.38 133.022 1108.21 139.284 1119.04 146.73C1129.87 153.839 1139.01 164.162 1146.46 177.701C1154.24 191.24 1158.14 206.81 1158.14 224.411C1158.14 256.567 1149.51 281.445 1132.24 299.046C1114.98 316.647 1090.44 325.447 1058.62 325.447C1027.15 325.447 996.343 320.539 966.219 310.723L971.804 235.073C1008.02 245.566 1033.24 250.813 1047.45 250.813C1061.67 250.813 1068.78 244.551 1068.78 232.027C1068.78 225.596 1064.89 219.673 1057.1 214.257C1049.65 208.841 1040.51 203.426 1029.68 198.01C1018.85 192.594 1007.85 186.332 996.682 179.224C985.851 172.116 976.542 161.793 968.757 148.254C961.311 134.714 957.588 118.637 957.588 100.02Z" fill="white"/>
<path d="M221.873 229.489C221.873 290.076 189.379 320.37 124.391 320.37H0V5.07717H121.852C154.008 5.07717 177.871 11.6775 193.441 24.8782C209.011 37.7404 216.796 58.3876 216.796 86.8198C216.796 115.252 205.118 136.915 181.763 151.808V154.854C208.503 165.347 221.873 190.225 221.873 229.489ZM104.082 264.013C114.237 264.013 121.006 261.813 124.391 257.413C128.114 252.674 129.976 243.197 129.976 228.981C129.976 214.426 128.114 204.272 124.391 198.518C120.668 192.425 113.898 189.379 104.082 189.379H87.8352V264.013H104.082ZM104.59 140.13C112.375 140.13 117.791 137.761 120.837 133.022C123.883 128.283 125.406 119.991 125.406 108.144C125.406 95.9587 123.714 87.4967 120.329 82.758C117.283 77.6809 111.867 75.1423 104.082 75.1423H87.8352V140.13H104.59Z" fill="white"/>
<path d="M411.819 320.37H251.38V5.07717H338.2V249.797H416.896L411.819 320.37Z" fill="white"/>
<path d="M454.114 38.0788C473.746 12.6929 505.732 0 550.073 0C594.413 0 626.061 12.5237 645.016 37.5711C664.309 62.6186 673.956 103.405 673.956 159.931C673.956 216.119 664.14 257.751 644.508 284.83C624.876 311.908 593.059 325.447 549.057 325.447C505.055 325.447 473.407 312.077 454.114 285.337C434.821 258.598 425.174 217.134 425.174 160.947C425.174 104.421 434.821 63.4647 454.114 38.0788ZM586.628 159.931C586.628 128.791 584.09 107.805 579.013 96.9741C574.274 85.8043 564.289 80.2194 549.057 80.2194C534.164 80.2194 524.518 85.8043 520.117 96.9741C515.717 107.805 513.517 128.622 513.517 159.423V171.609C513.517 204.441 515.886 226.104 520.625 236.597C525.702 246.751 535.687 251.828 550.58 251.828C565.812 251.828 575.628 246.92 580.028 237.104C584.428 227.288 586.628 206.98 586.628 176.178V159.931Z" fill="white"/>
<path d="M898.411 99.005C865.917 89.1891 842.054 84.2812 826.823 84.2812C811.93 84.2812 801.606 90.8815 795.852 104.082C790.436 117.283 787.728 138.269 787.728 167.039C787.728 195.471 790.267 216.288 795.344 229.489C800.76 242.351 811.591 248.782 827.838 248.782C832.577 248.782 841.716 247.428 855.255 244.72V206.133H832.407V146.223H929.382V320.37H869.471L861.347 304.123H859.317C853.562 308.862 848.993 312.416 845.608 314.785C836.131 321.893 822.761 325.447 805.498 325.447C734.756 325.447 699.385 271.968 699.385 165.008C699.385 111.529 708.694 70.742 727.31 42.6483C745.926 14.2161 777.235 0 821.238 0C856.439 0 886.733 5.41566 912.119 16.247L898.411 99.005Z" fill="white"/>
<path d="M957.588 100.02C957.588 69.8958 966.388 45.6946 983.989 27.4168C1001.59 9.13893 1025.62 0 1056.08 0C1086.89 0 1118.37 3.04631 1150.52 9.13893L1140.37 90.3738C1106.86 82.5888 1083.84 78.6963 1071.32 78.6963C1055.41 78.6963 1047.45 85.1274 1047.45 97.9896C1047.45 103.067 1051.18 107.975 1058.62 112.713C1066.41 117.452 1075.72 122.529 1086.55 127.945C1097.38 133.022 1108.21 139.284 1119.04 146.73C1129.87 153.839 1139.01 164.162 1146.46 177.701C1154.24 191.24 1158.14 206.81 1158.14 224.411C1158.14 256.567 1149.51 281.445 1132.24 299.046C1114.98 316.647 1090.44 325.447 1058.62 325.447C1027.15 325.447 996.343 320.539 966.219 310.723L971.804 235.073C1008.02 245.566 1033.24 250.813 1047.45 250.813C1061.67 250.813 1068.78 244.551 1068.78 232.027C1068.78 225.596 1064.89 219.673 1057.1 214.257C1049.65 208.841 1040.51 203.426 1029.68 198.01C1018.85 192.594 1007.85 186.332 996.682 179.224C985.851 172.116 976.542 161.793 968.757 148.254C961.311 134.714 957.588 118.637 957.588 100.02Z" fill="white"/>
</svg>
