<svg width="1512" height="1067" viewBox="0 0 1512 1067" fill="none" xmlns="http://www.w3.org/2000/svg">
<g opacity="0.43">
<path d="M1605 1066.25H-101V0H1605V1066.25ZM-98.8672 1064.12H110.117V855.133H-98.8672V1064.12ZM114.383 1064.12H323.367V855.133H114.383V1064.12ZM327.633 1064.12H536.617V855.133H327.633V1064.12ZM540.883 1064.12H749.867V855.133H540.883V1064.12ZM754.133 1064.12H963.117V855.133H754.133V1064.12ZM967.383 1064.12H1176.37V855.133H967.383V1064.12ZM1180.63 1064.12H1389.62V855.133H1180.63V1064.12ZM1393.88 1064.12H1602.87V855.133H1393.88V1064.12ZM-98.8672 850.867H110.117V641.883H-98.8672V850.867ZM114.383 850.867H323.367V641.883H114.383V850.867ZM327.633 850.867H536.617V641.883H327.633V850.867ZM540.883 850.867H749.867V641.883H540.883V850.867ZM754.133 850.867H963.117V641.883H754.133V850.867ZM967.383 850.867H1176.37V641.883H967.383V850.867ZM1180.63 850.867H1389.62V641.883H1180.63V850.867ZM1393.88 850.867H1602.87V641.883H1393.88V850.867ZM-98.8672 637.617H110.117V428.633H-98.8672V637.617ZM114.383 637.617H323.367V428.633H114.383V637.617ZM327.633 637.617H536.617V428.633H327.633V637.617ZM540.883 637.617H749.867V428.633H540.883V637.617ZM754.133 637.617H963.117V428.633H754.133V637.617ZM967.383 637.617H1176.37V428.633H967.383V637.617ZM1180.63 637.617H1389.62V428.633H1180.63V637.617ZM1393.88 637.617H1602.87V428.633H1393.88V637.617ZM-98.8672 424.367H110.117V215.383H-98.8672V424.367ZM114.383 424.367H323.367V215.383H114.383V424.367ZM327.633 424.367H536.617V215.383H327.633V424.367ZM540.883 424.367H749.867V215.383H540.883V424.367ZM754.133 424.367H963.117V215.383H754.133V424.367ZM967.383 424.367H1176.37V215.383H967.383V424.367ZM1180.63 424.367H1389.62V215.383H1180.63V424.367ZM1393.88 424.367H1602.87V215.383H1393.88V424.367ZM-98.8672 211.117H110.117V2.13281H-98.8672V211.117ZM114.383 211.117H323.367V2.13281H114.383V211.117ZM327.633 211.117H536.617V2.13281H327.633V211.117ZM540.883 211.117H749.867V2.13281H540.883V211.117ZM754.133 211.117H963.117V2.13281H754.133V211.117ZM967.383 211.117H1176.37V2.13281H967.383V211.117ZM1180.63 211.117H1389.62V2.13281H1180.63V211.117ZM1393.88 211.117H1602.87V2.13281H1393.88V211.117Z" fill="url(#paint0_radial_5991_545)"/>
<path d="M1605 1066.25H-101V0H1605V1066.25ZM-98.8672 1064.12H110.117V855.133H-98.8672V1064.12ZM114.383 1064.12H323.367V855.133H114.383V1064.12ZM327.633 1064.12H536.617V855.133H327.633V1064.12ZM540.883 1064.12H749.867V855.133H540.883V1064.12ZM754.133 1064.12H963.117V855.133H754.133V1064.12ZM967.383 1064.12H1176.37V855.133H967.383V1064.12ZM1180.63 1064.12H1389.62V855.133H1180.63V1064.12ZM1393.88 1064.12H1602.87V855.133H1393.88V1064.12ZM-98.8672 850.867H110.117V641.883H-98.8672V850.867ZM114.383 850.867H323.367V641.883H114.383V850.867ZM327.633 850.867H536.617V641.883H327.633V850.867ZM540.883 850.867H749.867V641.883H540.883V850.867ZM754.133 850.867H963.117V641.883H754.133V850.867ZM967.383 850.867H1176.37V641.883H967.383V850.867ZM1180.63 850.867H1389.62V641.883H1180.63V850.867ZM1393.88 850.867H1602.87V641.883H1393.88V850.867ZM-98.8672 637.617H110.117V428.633H-98.8672V637.617ZM114.383 637.617H323.367V428.633H114.383V637.617ZM327.633 637.617H536.617V428.633H327.633V637.617ZM540.883 637.617H749.867V428.633H540.883V637.617ZM754.133 637.617H963.117V428.633H754.133V637.617ZM967.383 637.617H1176.37V428.633H967.383V637.617ZM1180.63 637.617H1389.62V428.633H1180.63V637.617ZM1393.88 637.617H1602.87V428.633H1393.88V637.617ZM-98.8672 424.367H110.117V215.383H-98.8672V424.367ZM114.383 424.367H323.367V215.383H114.383V424.367ZM327.633 424.367H536.617V215.383H327.633V424.367ZM540.883 424.367H749.867V215.383H540.883V424.367ZM754.133 424.367H963.117V215.383H754.133V424.367ZM967.383 424.367H1176.37V215.383H967.383V424.367ZM1180.63 424.367H1389.62V215.383H1180.63V424.367ZM1393.88 424.367H1602.87V215.383H1393.88V424.367ZM-98.8672 211.117H110.117V2.13281H-98.8672V211.117ZM114.383 211.117H323.367V2.13281H114.383V211.117ZM327.633 211.117H536.617V2.13281H327.633V211.117ZM540.883 211.117H749.867V2.13281H540.883V211.117ZM754.133 211.117H963.117V2.13281H754.133V211.117ZM967.383 211.117H1176.37V2.13281H967.383V211.117ZM1180.63 211.117H1389.62V2.13281H1180.63V211.117ZM1393.88 211.117H1602.87V2.13281H1393.88V211.117Z" fill="#1B0043" fill-opacity="0.34"/>
</g>
<defs>
<radialGradient id="paint0_radial_5991_545" cx="0" cy="0" r="1" gradientUnits="userSpaceOnUse" gradientTransform="translate(752 533.125) rotate(90) scale(533.125 853)">
<stop stop-color="white"/>
<stop offset="1" stop-color="white" stop-opacity="0"/>
</radialGradient>
</defs>
</svg>
