<svg width="1406" height="326" viewBox="0 0 1406 326" fill="none" xmlns="http://www.w3.org/2000/svg">
<path d="M215.78 105.098C215.78 124.052 212.903 139.792 207.149 152.315C201.395 164.839 192.425 176.178 180.24 186.332L222.38 320.37H128.453L96.9741 206.641H85.2966V320.37H0V5.07717H117.791C151.638 5.07717 176.347 13.0314 191.917 28.9399C207.826 44.8484 215.78 70.2343 215.78 105.098ZM98.4973 153.331C107.298 153.331 113.56 150.792 117.283 145.715C121.006 140.638 122.868 131.499 122.868 118.298C122.868 104.759 121.006 95.451 117.283 90.3738C113.56 84.9581 107.467 82.2503 99.005 82.2503H85.2966V153.331H98.4973Z" fill="#F9F0FF"/>
<path d="M477.326 320.37H392.537L382.891 270.614H322.98L313.333 320.37H232.606L290.486 5.07717H419.446L477.326 320.37ZM373.244 211.211L355.474 98.4973H351.92L334.15 211.211H373.244Z" fill="#F9F0FF"/>
<path d="M727.147 320.37H631.189L593.11 201.564H588.033V320.37H503.751V5.07717H588.033V137.084H593.11L638.804 5.07717H732.224L670.791 168.055L727.147 320.37Z" fill="#F9F0FF"/>
<path d="M920.766 320.37H750.173V5.07717H925.843L920.766 82.758H836.993V129.976H909.596V196.995H836.993V249.29H925.843L920.766 320.37Z" fill="#F9F0FF"/>
<path d="M941.226 100.02C941.226 69.8958 950.026 45.6946 967.627 27.4168C985.228 9.13893 1009.26 0 1039.72 0C1070.52 0 1102 3.04631 1134.16 9.13893L1124 90.3738C1090.49 82.5888 1067.48 78.6963 1054.95 78.6963C1039.05 78.6963 1031.09 85.1274 1031.09 97.9896C1031.09 103.067 1034.81 107.975 1042.26 112.713C1050.05 117.452 1059.35 122.529 1070.19 127.945C1081.02 133.022 1091.85 139.284 1102.68 146.73C1113.51 153.839 1122.65 164.162 1130.1 177.701C1137.88 191.24 1141.77 206.81 1141.77 224.411C1141.77 256.567 1133.14 281.445 1115.88 299.046C1098.62 316.647 1074.08 325.447 1042.26 325.447C1010.78 325.447 979.981 320.539 949.857 310.723L955.442 235.073C991.659 245.566 1016.88 250.813 1031.09 250.813C1045.31 250.813 1052.42 244.551 1052.42 232.027C1052.42 225.596 1048.52 219.673 1040.74 214.257C1033.29 208.841 1024.15 203.426 1013.32 198.01C1002.49 192.594 991.49 186.332 980.32 179.224C969.489 172.116 960.18 161.793 952.395 148.254C944.949 134.714 941.226 118.637 941.226 100.02Z" fill="#F9F0FF"/>
<path d="M1405.16 320.37H1318.84V201.056H1259.44V320.37H1172.11V5.07717H1259.44V128.96H1318.84V5.07717H1405.16V320.37Z" fill="#F9F0FF"/>
<path d="M215.78 105.098C215.78 124.052 212.903 139.792 207.149 152.315C201.395 164.839 192.425 176.178 180.24 186.332L222.38 320.37H128.453L96.9741 206.641H85.2966V320.37H0V5.07717H117.791C151.638 5.07717 176.347 13.0314 191.917 28.9399C207.826 44.8484 215.78 70.2343 215.78 105.098ZM98.4973 153.331C107.298 153.331 113.56 150.792 117.283 145.715C121.006 140.638 122.868 131.499 122.868 118.298C122.868 104.759 121.006 95.451 117.283 90.3738C113.56 84.9581 107.467 82.2503 99.005 82.2503H85.2966V153.331H98.4973Z" fill="#F9F0FF"/>
<path d="M477.326 320.37H392.537L382.891 270.614H322.98L313.333 320.37H232.606L290.486 5.07717H419.446L477.326 320.37ZM373.244 211.211L355.474 98.4973H351.92L334.15 211.211H373.244Z" fill="#F9F0FF"/>
<path d="M727.147 320.37H631.189L593.11 201.564H588.033V320.37H503.751V5.07717H588.033V137.084H593.11L638.804 5.07717H732.224L670.791 168.055L727.147 320.37Z" fill="#F9F0FF"/>
<path d="M920.766 320.37H750.173V5.07717H925.843L920.766 82.758H836.993V129.976H909.596V196.995H836.993V249.29H925.843L920.766 320.37Z" fill="#F9F0FF"/>
<path d="M941.226 100.02C941.226 69.8958 950.026 45.6946 967.627 27.4168C985.228 9.13893 1009.26 0 1039.72 0C1070.52 0 1102 3.04631 1134.16 9.13893L1124 90.3738C1090.49 82.5888 1067.48 78.6963 1054.95 78.6963C1039.05 78.6963 1031.09 85.1274 1031.09 97.9896C1031.09 103.067 1034.81 107.975 1042.26 112.713C1050.05 117.452 1059.35 122.529 1070.19 127.945C1081.02 133.022 1091.85 139.284 1102.68 146.73C1113.51 153.839 1122.65 164.162 1130.1 177.701C1137.88 191.24 1141.77 206.81 1141.77 224.411C1141.77 256.567 1133.14 281.445 1115.88 299.046C1098.62 316.647 1074.08 325.447 1042.26 325.447C1010.78 325.447 979.981 320.539 949.857 310.723L955.442 235.073C991.659 245.566 1016.88 250.813 1031.09 250.813C1045.31 250.813 1052.42 244.551 1052.42 232.027C1052.42 225.596 1048.52 219.673 1040.74 214.257C1033.29 208.841 1024.15 203.426 1013.32 198.01C1002.49 192.594 991.49 186.332 980.32 179.224C969.489 172.116 960.18 161.793 952.395 148.254C944.949 134.714 941.226 118.637 941.226 100.02Z" fill="#F9F0FF"/>
<path d="M1405.16 320.37H1318.84V201.056H1259.44V320.37H1172.11V5.07717H1259.44V128.96H1318.84V5.07717H1405.16V320.37Z" fill="#F9F0FF"/>
</svg>
