<svg width="1396" height="513" viewBox="0 0 1396 513" fill="none" xmlns="http://www.w3.org/2000/svg">
<g clip-path="url(#clip0_6016_852)">
<g opacity="0.8">
<path d="M15.6125 361.446C42.5425 350.939 69.0668 346.372 94.3915 343.93C303.838 336.171 410.348 419.691 560.682 464.227C560.682 464.227 560.682 464.227 560.682 464.227C853.425 574.341 1205.27 432.49 1339.14 193.899C1354.27 170.36 1366.35 145.27 1380.37 122.58C1352.24 122.395 1324.88 126.82 1298.29 128.724C1032.51 151.792 864.723 104.541 702.314 49.7585C702.315 49.7585 702.314 49.7585 702.314 49.7585C485.532 -34.1976 144.968 28.7823 36.9798 273.784C24.772 302.159 16.4196 332.342 15.6125 361.446Z" fill="#1D0048"/>
<path d="M15.6125 361.446C40.127 349.22 64.971 342.284 89.0829 337.444C289.148 307.748 417.3 377.722 573.778 425.903C573.778 425.903 573.778 425.903 573.778 425.903C854.47 530.9 1189.29 406.535 1335.36 187.872C1351.55 166.334 1365.05 143.155 1380.37 122.58C1353.54 124.51 1327.6 130.846 1302.07 134.75C1048.48 177.747 863.678 147.982 689.218 88.0826C689.218 88.0827 689.218 88.0826 689.218 88.0826C478.58 7.77152 159.658 57.2052 42.2884 280.27C28.8677 306.247 18.8351 334.061 15.6125 361.446Z" fill="#300175"/>
<path d="M15.6125 361.446C31.3598 342.978 50.105 327.445 69.8146 313.902C235.828 204.583 442.533 225.389 621.312 286.8C621.312 286.8 621.312 286.8 621.312 286.8C858.261 373.228 1131.31 312.329 1321.65 165.999C1341.69 151.721 1360.31 135.477 1380.37 122.58C1358.28 132.187 1337.46 145.459 1315.78 156.624C1106.46 271.954 859.886 305.654 641.684 227.185C641.684 227.185 641.684 227.185 641.684 227.185C453.347 160.104 212.977 160.37 61.5567 303.812C43.7338 321.086 27.6024 340.303 15.6125 361.446Z" fill="white"/>
</g>
</g>
<defs>
<clipPath id="clip0_6016_852">
<rect width="1396" height="513" fill="white"/>
</clipPath>
</defs>
</svg>
