<svg width="1315" height="326" viewBox="0 0 1315 326" fill="none" xmlns="http://www.w3.org/2000/svg">
<path d="M325.447 5.07717L297.015 320.37H192.425L165.008 180.748H160.947L138.099 320.37H33.0017L0 5.07717H83.2657L96.4664 172.116H101.544L122.868 5.07717H207.657L231.012 172.116H236.089L245.228 5.07717H325.447Z" fill="white"/>
<path d="M376.556 38.0788C396.188 12.6929 428.174 0 472.515 0C516.856 0 548.503 12.5237 567.458 37.5711C586.751 62.6186 596.398 103.405 596.398 159.931C596.398 216.119 586.582 257.751 566.95 284.83C547.319 311.908 515.502 325.447 471.499 325.447C427.497 325.447 395.849 312.077 376.556 285.337C357.263 258.598 347.616 217.134 347.616 160.947C347.616 104.421 357.263 63.4647 376.556 38.0788ZM509.07 159.931C509.07 128.791 506.532 107.805 501.455 96.9741C496.716 85.8043 486.731 80.2194 471.499 80.2194C456.606 80.2194 446.96 85.8043 442.559 96.9741C438.159 107.805 435.959 128.622 435.959 159.423V171.609C435.959 204.441 438.328 226.104 443.067 236.597C448.144 246.751 458.129 251.828 473.023 251.828C488.254 251.828 498.07 246.92 502.47 237.104C506.87 227.288 509.07 206.98 509.07 176.178V159.931Z" fill="white"/>
<path d="M846.747 105.098C846.747 124.052 843.869 139.792 838.115 152.315C832.361 164.839 823.392 176.178 811.206 186.332L853.347 320.37H759.419L727.941 206.641H716.263V320.37H630.966V5.07717H748.757C782.605 5.07717 807.314 13.0314 822.884 28.9399C838.792 44.8484 846.747 70.2343 846.747 105.098ZM729.464 153.331C738.264 153.331 744.526 150.792 748.249 145.715C751.973 140.638 753.834 131.499 753.834 118.298C753.834 104.759 751.973 95.451 748.249 90.3738C744.526 84.9581 738.433 82.2503 729.971 82.2503H716.263V153.331H729.464Z" fill="white"/>
<path d="M1105.25 320.37H1009.29L971.209 201.564H966.132V320.37H881.85V5.07717H966.132V137.084H971.209L1016.9 5.07717H1110.32L1048.89 168.055L1105.25 320.37Z" fill="white"/>
<path d="M1114.06 100.02C1114.06 69.8958 1122.86 45.6946 1140.46 27.4168C1158.06 9.13893 1182.09 0 1212.55 0C1243.35 0 1274.83 3.04631 1306.99 9.13893L1296.83 90.3738C1263.33 82.5888 1240.31 78.6963 1227.78 78.6963C1211.88 78.6963 1203.92 85.1274 1203.92 97.9896C1203.92 103.067 1207.65 107.975 1215.09 112.713C1222.88 117.452 1232.19 122.529 1243.02 127.945C1253.85 133.022 1264.68 139.284 1275.51 146.73C1286.34 153.839 1295.48 164.162 1302.93 177.701C1310.71 191.24 1314.6 206.81 1314.6 224.411C1314.6 256.567 1305.97 281.445 1288.71 299.046C1271.45 316.647 1246.91 325.447 1215.09 325.447C1183.61 325.447 1152.81 320.539 1122.69 310.723L1128.27 235.073C1164.49 245.566 1189.71 250.813 1203.92 250.813C1218.14 250.813 1225.25 244.551 1225.25 232.027C1225.25 225.596 1221.35 219.673 1213.57 214.257C1206.12 208.841 1196.98 203.426 1186.15 198.01C1175.32 192.594 1164.32 186.332 1153.15 179.224C1142.32 172.116 1133.01 161.793 1125.23 148.254C1117.78 134.714 1114.06 118.637 1114.06 100.02Z" fill="white"/>
<path d="M325.447 5.07717L297.015 320.37H192.425L165.008 180.748H160.947L138.099 320.37H33.0017L0 5.07717H83.2657L96.4664 172.116H101.544L122.868 5.07717H207.657L231.012 172.116H236.089L245.228 5.07717H325.447Z" fill="white"/>
<path d="M376.556 38.0788C396.188 12.6929 428.174 0 472.515 0C516.856 0 548.503 12.5237 567.458 37.5711C586.751 62.6186 596.398 103.405 596.398 159.931C596.398 216.119 586.582 257.751 566.95 284.83C547.319 311.908 515.502 325.447 471.499 325.447C427.497 325.447 395.849 312.077 376.556 285.337C357.263 258.598 347.616 217.134 347.616 160.947C347.616 104.421 357.263 63.4647 376.556 38.0788ZM509.07 159.931C509.07 128.791 506.532 107.805 501.455 96.9741C496.716 85.8043 486.731 80.2194 471.499 80.2194C456.606 80.2194 446.96 85.8043 442.559 96.9741C438.159 107.805 435.959 128.622 435.959 159.423V171.609C435.959 204.441 438.328 226.104 443.067 236.597C448.144 246.751 458.129 251.828 473.023 251.828C488.254 251.828 498.07 246.92 502.47 237.104C506.87 227.288 509.07 206.98 509.07 176.178V159.931Z" fill="white"/>
<path d="M846.747 105.098C846.747 124.052 843.869 139.792 838.115 152.315C832.361 164.839 823.392 176.178 811.206 186.332L853.347 320.37H759.419L727.941 206.641H716.263V320.37H630.966V5.07717H748.757C782.605 5.07717 807.314 13.0314 822.884 28.9399C838.792 44.8484 846.747 70.2343 846.747 105.098ZM729.464 153.331C738.264 153.331 744.526 150.792 748.249 145.715C751.973 140.638 753.834 131.499 753.834 118.298C753.834 104.759 751.973 95.451 748.249 90.3738C744.526 84.9581 738.433 82.2503 729.971 82.2503H716.263V153.331H729.464Z" fill="white"/>
<path d="M1105.25 320.37H1009.29L971.209 201.564H966.132V320.37H881.85V5.07717H966.132V137.084H971.209L1016.9 5.07717H1110.32L1048.89 168.055L1105.25 320.37Z" fill="white"/>
<path d="M1114.06 100.02C1114.06 69.8958 1122.86 45.6946 1140.46 27.4168C1158.06 9.13893 1182.09 0 1212.55 0C1243.35 0 1274.83 3.04631 1306.99 9.13893L1296.83 90.3738C1263.33 82.5888 1240.31 78.6963 1227.78 78.6963C1211.88 78.6963 1203.92 85.1274 1203.92 97.9896C1203.92 103.067 1207.65 107.975 1215.09 112.713C1222.88 117.452 1232.19 122.529 1243.02 127.945C1253.85 133.022 1264.68 139.284 1275.51 146.73C1286.34 153.839 1295.48 164.162 1302.93 177.701C1310.71 191.24 1314.6 206.81 1314.6 224.411C1314.6 256.567 1305.97 281.445 1288.71 299.046C1271.45 316.647 1246.91 325.447 1215.09 325.447C1183.61 325.447 1152.81 320.539 1122.69 310.723L1128.27 235.073C1164.49 245.566 1189.71 250.813 1203.92 250.813C1218.14 250.813 1225.25 244.551 1225.25 232.027C1225.25 225.596 1221.35 219.673 1213.57 214.257C1206.12 208.841 1196.98 203.426 1186.15 198.01C1175.32 192.594 1164.32 186.332 1153.15 179.224C1142.32 172.116 1133.01 161.793 1125.23 148.254C1117.78 134.714 1114.06 118.637 1114.06 100.02Z" fill="white"/>
</svg>
